<svg width="28" height="20" fill="none" xmlns="http://www.w3.org/2000/svg"><rect width="28" height="20" rx="2" fill="#fff"/><mask id="a" maskUnits="userSpaceOnUse" x="0" y="0" width="28" height="20"><rect width="28" height="20" rx="2" fill="#fff"/></mask><g mask="url(#a)"><path fill-rule="evenodd" clip-rule="evenodd" d="M0 6.667h28V0H0v6.667z" fill="#24AAD5"/><path fill-rule="evenodd" clip-rule="evenodd" d="M0 20h28v-6.667H0V20z" fill="#21BF75"/><path fill-rule="evenodd" clip-rule="evenodd" d="M0 13.333h28V6.667H0v6.666z" fill="#ED1845"/><g filter="url(#filter0_d)"><path fill-rule="evenodd" clip-rule="evenodd" d="M14 12a1.99 1.99 0 001.111-.337 1.667 1.667 0 110-3.326A2 2 0 1014 12zm2-2a.667.667 0 11-1.333 0A.667.667 0 0116 10z" fill="#fff"/></g></g><defs><filter id="filter0_d" x="12" y="8" width="4" height="5" filterUnits="userSpaceOnUse" color-interpolation-filters="sRGB"><feFlood flood-opacity="0" result="BackgroundImageFix"/><feColorMatrix in="SourceAlpha" values="0 0 0 0 0 0 0 0 0 0 0 0 0 0 0 0 0 0 127 0"/><feOffset dy="1"/><feColorMatrix values="0 0 0 0 0 0 0 0 0 0 0 0 0 0 0 0 0 0 0.06 0"/><feBlend in2="BackgroundImageFix" result="effect1_dropShadow"/><feBlend in="SourceGraphic" in2="effect1_dropShadow" result="shape"/></filter></defs></svg>