<svg width="160" height="145" fill="none" xmlns="http://www.w3.org/2000/svg"><ellipse rx="50.5" ry="43.5" transform="matrix(.96868 .24831 -.30625 .95195 84.138 80.13)" fill="url(#paint0_linear)"/><ellipse rx="56.5" ry="42.5" transform="matrix(-.83864 -.54468 .50948 -.86048 81.81 76.835)" fill="url(#paint1_linear)"/><path d="M29.243 44.757c17.717-30.246-1.99-44.864 32-29 63.999 2 86.544 56.177 68.827 86.423-17.717 30.247-46.837 15.864-80.828 0-33.99-15.864-37.716-27.176-19.999-57.423z" fill="url(#paint2_linear)"/><g clip-path="url(#clip0)" fill="#fff"><path d="M57.475 77.314c-3.53 0-6.4 2.87-6.4 6.4 0 3.53 2.87 6.4 6.4 6.4 3.53 0 6.4-2.87 6.4-6.4 0-3.53-2.87-6.4-6.4-6.4zm0 10.667a4.27 4.27 0 01-4.267-4.267 4.271 4.271 0 014.267-4.267 4.27 4.27 0 014.266 4.267 4.27 4.27 0 01-4.266 4.267zm36.266-10.667c-3.53 0-6.4 2.87-6.4 6.4 0 3.53 2.87 6.4 6.4 6.4 3.53 0 6.4-2.87 6.4-6.4 0-3.53-2.87-6.4-6.4-6.4zm0 10.667a4.27 4.27 0 01-4.266-4.267 4.271 4.271 0 014.266-4.267 4.27 4.27 0 014.267 4.267 4.27 4.27 0 01-4.267 4.267z"/><path d="M106.372 71.403l-9.6-14.933a1.067 1.067 0 00-.898-.49H84.141c-.59 0-1.066.478-1.066 1.067v26.667c0 .59.476 1.066 1.066 1.066h4.267v-2.133h-3.2V58.114h10.084l9.116 14.18v10.353h-5.334v2.133h6.4c.59 0 1.067-.476 1.067-1.066V71.98c0-.204-.058-.406-.169-.578z"/><path d="M89.475 69.847V62.38h8.533v-2.133h-9.6c-.59 0-1.067.478-1.067 1.067v9.6c0 .59.477 1.066 1.067 1.066h16v-2.133H89.475zm-5.334-21.333H43.608c-.589 0-1.067.478-1.067 1.066v34.134c0 .59.478 1.066 1.067 1.066h8.533v-2.133h-7.466v-32h38.4v32H62.808v2.133H84.14c.59 0 1.067-.476 1.067-1.066V49.58c0-.588-.477-1.066-1.067-1.066z"/><path d="M50.008 78.38h-6.4v2.133h6.4V78.38zm33.067 0H64.94v2.133h18.133V78.38zm22.399 0h-4.266v2.133h4.266V78.38zm-21.333-25.6H46.808v2.134H84.14V52.78zm-25.6 29.867h-2.133v2.133h2.133v-2.133zm36.267 0h-2.134v2.133h2.134v-2.133zm-33.067-38.4H46.808v2.133H61.74v-2.133zm-17.066 0H42.54v2.133h2.134v-2.133z"/></g><defs><linearGradient id="paint0_linear" x1=".039" y1="43.488" x2="101.018" y2="43.488" gradientUnits="userSpaceOnUse"><stop stop-color="#7000AC"/><stop offset=".999" stop-color="#FF9C7B" stop-opacity="0"/></linearGradient><linearGradient id="paint1_linear" x1=".044" y1="42.488" x2="113.02" y2="42.488" gradientUnits="userSpaceOnUse"><stop stop-color="#7000AC" stop-opacity="0"/><stop offset=".999" stop-color="#FF9C7B"/></linearGradient><linearGradient id="paint2_linear" x1="133.985" y1="98.797" x2="30.017" y2="37.898" gradientUnits="userSpaceOnUse"><stop stop-color="#7000AC"/><stop offset=".999" stop-color="#FF9C7B" stop-opacity="0"/></linearGradient><clipPath id="clip0"><path fill="#fff" transform="translate(42.541 35.18)" d="M0 0h64v64H0z"/></clipPath></defs></svg>