<svg width="80" height="80" fill="none" xmlns="http://www.w3.org/2000/svg"><g clip-path="url(#clip0)" fill="#fff"><path d="M79.674 34.119l-13.39-17.394a1.569 1.569 0 00-2.085-.366l-8.645 5.498H44.28c-.146 0-.29.03-.431.072l-8.742 2.516-9.071-2.48-8.814-5.606a1.568 1.568 0 00-2.063.338L.348 35.042a1.568 1.568 0 00.198 2.174l7.762 6.68 6.964 9.385a5.55 5.55 0 00.122 7.711 5.52 5.52 0 003.363 1.593c-.043.278-.065.56-.065.848a5.51 5.51 0 001.624 3.92 5.508 5.508 0 003.92 1.623l.06-.001a5.51 5.51 0 001.621 4.033 5.51 5.51 0 003.92 1.623c.292 0 .581-.023.865-.067a5.515 5.515 0 001.594 3.375 5.524 5.524 0 003.92 1.62c1.42 0 2.84-.54 3.92-1.62l.848-.848.356.287a5.525 5.525 0 003.855 1.557c1.42 0 2.84-.54 3.92-1.621a5.528 5.528 0 001.62-4.007 5.533 5.533 0 005.627-5.624 5.513 5.513 0 004.007-1.623 5.528 5.528 0 001.62-4.007 5.53 5.53 0 004.007-1.62 5.553 5.553 0 00.729-6.94l5.085-10.65 7.644-6.578a1.568 1.568 0 00.22-2.146zM16.72 19.758l6.338 4.03L9.27 40.585l-5.525-4.756 12.974-16.071zm.894 35.612l1.913-1.912a2.403 2.403 0 011.488-.695l.04-.002a2.392 2.392 0 011.922.745c.887.937.84 2.468-.105 3.413l-1.855 1.855a2.409 2.409 0 01-3.403 0 2.41 2.41 0 010-3.404zm4.921 9.764a2.388 2.388 0 01-.705-1.701c0-.643.25-1.247.705-1.702l3.71-3.71a2.432 2.432 0 012.735-.472 2.4 2.4 0 011.326 2.485 2.54 2.54 0 01-.717 1.45l-3.65 3.65a2.39 2.39 0 01-1.702.705 2.39 2.39 0 01-1.702-.705zm5.6 5.655a2.388 2.388 0 01-.704-1.701c0-.643.25-1.247.705-1.702l3.708-3.71a2.433 2.433 0 012.91-.38 2.394 2.394 0 011.148 2.43 2.543 2.543 0 01-.713 1.413l-3.65 3.65a2.39 2.39 0 01-1.701.704 2.39 2.39 0 01-1.702-.704zm6.38 4.931a2.409 2.409 0 010-3.403l1.913-1.912a2.5 2.5 0 01.18-.164 2.398 2.398 0 011.303-.531l.083-.004c.056-.003.112-.007.169-.006a2.39 2.39 0 011.871.936c.721.943.624 2.344-.27 3.24l-1.846 1.845a2.409 2.409 0 01-3.403 0zm29.264-17.506a2.408 2.408 0 01-3.403 0 1.43 1.43 0 00-.107-.096L50.181 47.925a1.569 1.569 0 00-2.23 2.207l10.196 10.302.004.004a2.41 2.41 0 010 3.403 2.39 2.39 0 01-1.702.705 2.39 2.39 0 01-1.702-.705l-6.82-6.892a1.568 1.568 0 10-2.23 2.208l6.716 6.785c.035.043.071.084.11.123a2.41 2.41 0 010 3.403 2.41 2.41 0 01-3.404 0l-3.722-3.762a1.568 1.568 0 10-2.23 2.207l3.618 3.656c.035.042.071.084.11.123a2.41 2.41 0 010 3.403 2.408 2.408 0 01-3.402 0c-.108-.108-.235-.19-.356-.284-.102-.078-.13-.132-.078-.257.052-.126.13-.24.181-.367a5.42 5.42 0 00.15-.434c.24-.775.31-1.609.203-2.413a5.52 5.52 0 00-2.344-3.818 5.506 5.506 0 00-2.333-.905c.404-1.782-.081-3.714-1.343-5.048a5.502 5.502 0 00-4.117-1.734c.033-1.44-.49-2.871-1.483-3.92a5.505 5.505 0 00-3.952-1.735 5.642 5.642 0 00-1.338.142 5.5 5.5 0 00-1.834-3.361 5.498 5.498 0 00-3.545-1.346 5.556 5.556 0 00-3.787 1.425l-6.064-8.17L25.96 25.195l4.623 1.264-6.038 10.655a5.506 5.506 0 00-.52 4.211 5.506 5.506 0 002.873 3.485 5.507 5.507 0 003.948.38 5.509 5.509 0 003.345-2.61l3.924-6.924 7.007.497L63.778 54.81a2.41 2.41 0 010 3.404zm.65-7.191L46.926 33.522a1.57 1.57 0 00-.998-.455l-8.579-.61a1.594 1.594 0 00-1.475.792l-4.412 7.786c-.317.56-.833.961-1.452 1.133a2.39 2.39 0 01-1.828-.226 2.391 2.391 0 01-1.133-1.452 2.388 2.388 0 01.226-1.828l5.89-10.394 2.386-.686.047-.016 8.907-2.572h10.761l13.435 17.079-4.273 8.95zm6.328-11.412L58.332 23.808l6.341-4.033 11.61 15.08-5.527 4.756z"/><path d="M48.465 18.911c.402 0 .803-.153 1.11-.46L60.29 7.736a1.569 1.569 0 10-2.219-2.219L47.356 16.233a1.569 1.569 0 001.11 2.678zm-18.041-.46a1.564 1.564 0 002.219 0 1.569 1.569 0 000-2.218L21.928 5.517a1.569 1.569 0 10-2.219 2.22L30.424 18.45zm9.576.46c.866 0 1.568-.703 1.568-1.569V8.475a1.569 1.569 0 00-3.137 0v8.867c0 .867.703 1.569 1.569 1.569zM38.552 2.79c.25.603.87.999 1.525.965a1.584 1.584 0 001.416-1.087 1.58 1.58 0 00-.538-1.723 1.586 1.586 0 00-1.825-.06 1.58 1.58 0 00-.578 1.904z"/></g><defs><clipPath id="clip0"><path fill="#fff" d="M0 0h80v80H0z"/></clipPath></defs></svg>