<svg width="80" height="80" fill="none" xmlns="http://www.w3.org/2000/svg"><g clip-path="url(#clip0)" fill="#fff"><path d="M13.292 71.083a1.573 1.573 0 00-1.104-.458c-.411 0-.815.167-1.105.458-.29.29-.458.694-.458 1.105 0 .41.167.814.458 1.104.29.29.694.458 1.104.458.411 0 .815-.167 1.105-.458.29-.29.458-.694.458-1.105 0-.41-.167-.814-.458-1.104zm60.07-42.499a1.57 1.57 0 00-1.104-.458c-.411 0-.814.167-1.105.458-.29.29-.458.694-.458 1.105 0 .41.168.814.458 1.104.29.29.694.458 1.105.458a1.57 1.57 0 001.564-1.563 1.57 1.57 0 00-.46-1.104z"/><path d="M79.542.458A1.564 1.564 0 0078.437 0L40 .002c-.863 0-1.562.7-1.562 1.563v4.468L23.627 10a1.562 1.562 0 00-1.105 1.914l7.676 28.647-6.64 6.64a4.685 4.685 0 00-3.87-2.045h-15a4.693 4.693 0 00-4.687 4.687v25.468A4.693 4.693 0 004.69 80h15a4.695 4.695 0 004.549-3.56l1.858 1.62A7.872 7.872 0 0031.27 80h47.167c.863 0 1.562-.7 1.562-1.562V1.562a1.56 1.56 0 00-.457-1.104zM21.25 75.313c0 .861-.701 1.562-1.563 1.562h-15a1.564 1.564 0 01-1.562-1.562V49.844c0-.861.701-1.562 1.563-1.562h5.937v18a1.563 1.563 0 003.125 0v-18h5.937c.862 0 1.563.701 1.563 1.563v25.468zm4.694-62.698l12.493-3.347v5.79l-1.047.28a1.562 1.562 0 00-1.105 1.914 4.212 4.212 0 01-2.975 5.153 1.562 1.562 0 00-1.104 1.916l6.09 22.553H35.16l-1.616-6.322a1.56 1.56 0 00-.262-.548l-7.338-27.388zm12.493 9.608v13.185l-2.85-10.553a7.32 7.32 0 002.85-2.632zm22.447 54.652H31.27a4.748 4.748 0 01-3.121-1.17l-3.773-3.29v-21.61l6.821-6.822 1.237 4.84c.177.692.8 1.176 1.514 1.176l30.72.002a2.19 2.19 0 012.187 2.187 2.19 2.19 0 01-2.187 2.188H48.927a1.563 1.563 0 000 3.125h20.631a2.19 2.19 0 012.188 2.187 2.19 2.19 0 01-2.188 2.188H48.927a1.563 1.563 0 000 3.125h17.288a2.19 2.19 0 012.187 2.187 2.19 2.19 0 01-2.187 2.188H48.927a1.563 1.563 0 000 3.125h11.958a2.19 2.19 0 012.188 2.187 2.19 2.19 0 01-2.188 2.187zm15.99 0h-11.15a5.28 5.28 0 000-4.375h.49a5.318 5.318 0 005.312-5.312c0-.855-.204-1.662-.564-2.378a5.32 5.32 0 003.907-5.122c0-1.185-.39-2.28-1.048-3.165V36.72a1.563 1.563 0 00-3.125 0V54.5a5.318 5.318 0 00-1.14-.124h-.05a5.279 5.279 0 00.473-2.188 5.318 5.318 0 00-5.313-5.312h-2.511c2.667-1.144 4.54-3.795 4.54-6.876 0-4.123-3.354-7.478-7.478-7.478-4.123 0-7.478 3.355-7.478 7.478 0 3.081 1.874 5.732 4.54 6.876h-8.54v-29.71a7.355 7.355 0 005.602-5.602h11.753a7.355 7.355 0 005.602 5.602v4.858a1.563 1.563 0 003.125 0V15.77c0-.863-.7-1.562-1.563-1.562a4.212 4.212 0 01-4.207-4.207c0-.863-.7-1.563-1.562-1.563H51.947c-.863 0-1.563.7-1.563 1.563a4.212 4.212 0 01-4.207 4.207c-.863 0-1.562.7-1.562 1.562v31.105h-3.052V3.126l35.311-.001v73.75zM59.217 44.353A4.358 4.358 0 0154.867 40c0-2.4 1.953-4.353 4.352-4.353 2.4 0 4.353 1.953 4.353 4.353 0 2.4-1.952 4.353-4.352 4.353z"/></g><defs><clipPath id="clip0"><path fill="#fff" d="M0 0h80v80H0z"/></clipPath></defs></svg>