<svg width="226" height="42" fill="none" xmlns="http://www.w3.org/2000/svg"><g clip-path="url(#clip0)"><path d="M76.957 12.795c0 .817-.319 1.534-.906 2.054-.514.47-1.15.718-1.836.718h-.269c-.66-.025-1.248-.322-1.762-.817a2.616 2.616 0 01-.784-1.88c0-.768.27-1.436.784-2.005a2.57 2.57 0 011.933-.867c.172 0 .367.025.686.075a2.72 2.72 0 011.542.99c.416.52.612 1.088.612 1.732zm-.563 5.815v15.172a3.5 3.5 0 01-1.028 2.524c-.686.718-1.518 1.064-2.497 1.064a.935.935 0 01-.93-.94V18.61c0-.519.416-.94.93-.94h2.595c.514 0 .93.421.93.94zm23.645-2.029c-1.2-2.054-2.889-3.687-5.043-4.85-2.13-1.163-4.577-1.757-7.27-1.757h-7.44a.909.909 0 00-.906.915v25.293a.91.91 0 00.906.916h7.44c2.57 0 4.945-.57 7.075-1.708a13.212 13.212 0 005.115-4.826c1.273-2.079 1.91-4.454 1.91-7.078.024-2.524-.563-4.85-1.787-6.905zM83.835 14.28h3.77c1.982 0 3.72.396 5.188 1.213a8.464 8.464 0 013.354 3.291c.783 1.41 1.175 2.995 1.175 4.752 0 1.782-.392 3.39-1.2 4.776-.783 1.386-1.933 2.475-3.377 3.267-1.47.792-3.183 1.188-5.116 1.188H83.81V14.28h.025zm44.916 2.227c-1.175-2.079-2.791-3.762-4.847-4.974-2.031-1.213-4.332-1.832-6.829-1.832-2.546 0-4.871.62-6.927 1.856-2.056 1.213-3.672 2.92-4.847 5.05-1.174 2.128-1.762 4.479-1.762 7.003s.588 4.85 1.762 6.93c1.175 2.078 2.791 3.761 4.847 4.974 2.032 1.213 4.332 1.831 6.829 1.831 2.546 0 4.871-.618 6.903-1.856 2.056-1.212 3.696-2.92 4.871-5.048 1.175-2.129 1.762-4.48 1.762-7.004 0-2.525-.587-4.851-1.762-6.93zm-7.099 15.245c-1.346.842-2.864 1.262-4.552 1.262-1.738 0-3.28-.42-4.627-1.287a8.713 8.713 0 01-3.206-3.464c-.783-1.46-1.175-3.094-1.175-4.826 0-1.733.391-3.317 1.15-4.777a8.801 8.801 0 013.158-3.415c1.346-.841 2.888-1.262 4.602-1.262 1.713 0 3.255.445 4.626 1.287 1.371.866 2.448 2.03 3.231 3.514a10.459 10.459 0 011.15 4.826c0 1.708-.391 3.316-1.15 4.727a9.1 9.1 0 01-3.207 3.415zm28.615-2.747c0 1.658-.416 3.143-1.249 4.43-.807 1.262-1.933 2.227-3.353 2.92-1.371.669-2.937.99-4.651.99-1.689 0-3.28-.37-4.699-1.138-1.42-.743-2.595-1.733-3.452-2.945-.881-1.238-1.419-2.55-1.542-3.91a.91.91 0 01.637-.966 3.693 3.693 0 012.912.396 4.1 4.1 0 011.396 1.436c.489.841 1.15 1.534 2.031 2.03.881.519 1.763.766 2.742.766 1.37 0 2.496-.346 3.451-1.04.881-.618 1.273-1.46 1.273-2.647 0-1.04-.343-1.807-1.004-2.327-.783-.618-1.713-1.039-2.741-1.262l-3.329-.693a10.478 10.478 0 01-2.399-.792 8.888 8.888 0 01-2.276-1.559c-1.347-1.287-2.032-2.97-2.032-5.024 0-1.584.416-2.994 1.248-4.207a8.127 8.127 0 013.256-2.772 9.858 9.858 0 014.283-.965c1.836 0 3.403.347 4.725 1.015 1.321.668 2.349 1.534 3.059 2.598.71 1.04 1.151 2.104 1.371 3.218a.902.902 0 01-.71 1.064l-.171.025a4.297 4.297 0 01-.857.099 3.814 3.814 0 01-1.738-.396 3.474 3.474 0 01-1.346-1.188c-1.028-1.46-2.448-2.178-4.333-2.178-.122 0-.391 0-.954.074-.955.1-1.763.495-2.448 1.188-.661.668-1.004 1.46-1.004 2.4 0 .743.221 1.362.686 1.906.465.545 1.224.94 2.227 1.139l3.182.618a15.27 15.27 0 012.889.842 8.227 8.227 0 012.423 1.584c.857.816 1.493 1.732 1.885 2.697.44.891.612 1.782.612 2.574zm21.54-15.616a.909.909 0 01-.906.916h-7.441v21.877a.925.925 0 01-.906.916h-2.643a.909.909 0 01-.906-.916V14.28h-4.993c-.93 0-1.738-.347-2.399-1.015-.637-.668-.979-1.485-.979-2.4 0-.495.416-.916.905-.916h16.89c.93 0 1.738.322 2.399.99.636.668.979 1.485.979 2.45zm23.155-2.499v15.418c0 3.44-.905 6.162-2.717 8.092-1.811 1.955-4.357 2.945-7.563 2.945-3.231 0-5.801-1.014-7.613-3.019-1.786-1.98-2.692-4.628-2.692-7.895V10.89c0-.495.392-.915.906-.915.954 0 1.786.346 2.472 1.039a3.442 3.442 0 011.028 2.5v12.82c0 2.326.538 4.058 1.591 5.097 1.101 1.065 2.521 1.584 4.357 1.584 1.885 0 3.304-.544 4.283-1.658 1.004-1.138 1.518-2.772 1.518-4.9V13.513c0-.966.343-1.807 1.028-2.5.685-.693 1.518-1.04 2.472-1.04.514 0 .93.397.93.916zm31.038 0v25.292a.909.909 0 01-.906.916c-.954 0-1.787-.347-2.472-1.04-.685-.693-1.028-1.51-1.028-2.5v-15.17l-8.739 18.165a.886.886 0 01-1.615 0l-8.738-17.992V33.56a3.52 3.52 0 01-1.004 2.5c-.685.692-1.518 1.039-2.472 1.039a.909.909 0 01-.906-.916V10.89c0-.495.416-.915.906-.915 1.297 0 2.496.37 3.598 1.088a6.637 6.637 0 012.423 2.896l7.05 14.478 6.951-14.428c.539-1.188 1.347-2.178 2.448-2.896a6.328 6.328 0 013.623-1.114c.465-.024.881.372.881.891z" fill="#7000AC"/><path d="M52.235 22.026c.049 2.945-.539 5.94-1.836 8.835-1.126 2.5-2.717 4.777-4.724 6.633a20.375 20.375 0 01-6.34 3.935c-4.21.792-8.64.346-12.532-1.485 4.797 1.237 10.207-.347 13.61-3.985 4.112-4.405 5.042-11.557 1.909-16.779-2.962-4.95-8.812-7.251-14.27-7.796-7.173-.718-14.393 1.436-20.121 5.84-3.084 2.377-5.703 5.371-7.588 8.787C5.728 15.814 14.589 5.692 25.726 1.732a27.557 27.557 0 014.993-.618C42.86.644 52.088 10.79 52.235 22.026z" fill="url(#paint0_linear)"/><path d="M56.053 20.937c.05 2.945-.538 5.94-1.836 8.835-1.126 2.5-2.717 4.777-4.724 6.633a7.16 7.16 0 01-.465.42c-.049.05-.098.075-.122.124-.147.124-.319.273-.49.396-.367.297-.759.57-1.15.842-.196.123-.392.272-.612.396-.27.173-.514.321-.784.47a.184.184 0 01-.097.05c-.172.098-.319.173-.49.272-.073.05-.147.074-.22.123-.025.025-.05.025-.074.025-.098.05-.195.1-.318.149-.024 0-.024.024-.049.024-.024.025-.049.025-.098.05-.098.05-.196.099-.294.124-.048.024-.122.05-.195.074-.05.025-.123.05-.172.074-.024 0-.024.025-.049.025l-.367.148c-.122.05-.269.1-.391.149h-.025c-.245.099-.49.173-.734.272-.025 0-.05.025-.098.025-.122.05-.245.074-.367.123-.123.05-.27.075-.416.124-.05.025-.098.025-.147.05-.123.025-.245.074-.367.099-.05 0-.098.024-.123.024-.073.025-.122.025-.196.05a.707.707 0 01-.22.05c-.024 0-.073.024-.098.024-.024 0-.049.025-.098.025-.122.025-.22.05-.342.074-.025 0-.05 0-.074.025-.147.025-.27.05-.416.074 2.35-.915 4.504-2.227 6.364-3.935 2.007-1.856 3.598-4.133 4.724-6.632a20.754 20.754 0 001.836-8.835C52.112 10.765 42.86.594 30.72 1.064a30.608 30.608 0 00-4.993.619c.17-.074.367-.124.538-.198l.661-.223a23.21 23.21 0 011.248-.346 16.565 16.565 0 011.591-.372c.147-.024.294-.05.441-.099.171-.024.367-.074.539-.099.122-.024.244-.049.367-.049.195-.025.391-.05.563-.074L32.85.074c.146-.025.318-.025.465-.05h.122c.147-.024.318-.024.49-.024.195 0 .391-.025.587-.025 12.14-.42 21.393 9.751 21.54 20.962z" fill="url(#paint1_linear)"/><path d="M42.322 19.18C21.956 5.519 0 26.703 0 26.703c.122-.222.245-.47.367-.692 1.885-3.416 4.504-6.41 7.588-8.786 5.703-4.405 12.924-6.559 20.12-5.84 5.46.544 11.285 2.845 14.247 7.795z" fill="url(#paint2_linear)"/><path d="M26.95 28.411c-1.102-3.093-6.756-2.574-10.623-1.163-3.843 1.41-9.914 6.31-11.872 9.404 3.329 1.262 11.235.94 15.078-.47s8.518-4.677 7.417-7.77z" fill="url(#paint3_linear)"/><path d="M32.849 30.515c2.325 0 4.21-1.906 4.21-4.257 0-2.35-1.885-4.257-4.21-4.257s-4.21 1.906-4.21 4.257c0 2.35 1.885 4.257 4.21 4.257z" fill="url(#paint4_linear)"/></g><defs><linearGradient id="paint0_linear" x1=".363" y1="21.445" x2="52.247" y2="21.445" gradientUnits="userSpaceOnUse"><stop stop-color="#7000AC"/><stop offset=".127" stop-color="#7506AA"/><stop offset=".297" stop-color="#8517A5"/><stop offset=".491" stop-color="#9E339C"/><stop offset=".703" stop-color="#C25A90"/><stop offset=".927" stop-color="#EF8B80"/><stop offset=".999" stop-color="#FF9C7B"/></linearGradient><linearGradient id="paint1_linear" x1="25.72" y1="20.715" x2="56.059" y2="20.715" gradientUnits="userSpaceOnUse"><stop stop-color="#7000AC"/><stop offset=".127" stop-color="#7506AA"/><stop offset=".297" stop-color="#8517A5"/><stop offset=".491" stop-color="#9E339C"/><stop offset=".703" stop-color="#C25A90"/><stop offset=".927" stop-color="#EF8B80"/><stop offset=".999" stop-color="#FF9C7B"/></linearGradient><linearGradient id="paint2_linear" x1="-4.317" y1="20.938" x2="42.447" y2="15.374" gradientUnits="userSpaceOnUse"><stop stop-color="#7000AC"/><stop offset=".411" stop-color="#7202AB"/><stop offset=".559" stop-color="#7809A9"/><stop offset=".664" stop-color="#8314A6"/><stop offset=".749" stop-color="#9225A0"/><stop offset=".823" stop-color="#A63B99"/><stop offset=".887" stop-color="#BF5791"/><stop offset=".944" stop-color="#DC7687"/><stop offset=".996" stop-color="#FD9A7C"/><stop offset=".999" stop-color="#FF9C7B"/></linearGradient><linearGradient id="paint3_linear" x1="3.874" y1="26.731" x2="31.456" y2="38.843" gradientUnits="userSpaceOnUse"><stop stop-color="#7000AC"/><stop offset=".131" stop-color="#7506AA"/><stop offset=".298" stop-color="#8415A5"/><stop offset=".484" stop-color="#9C309D"/><stop offset=".685" stop-color="#BD5492"/><stop offset=".896" stop-color="#E88283"/><stop offset=".999" stop-color="#FF9C7B"/></linearGradient><linearGradient id="paint4_linear" x1="7.301" y1="35.938" x2="41.797" y2="23.143" gradientUnits="userSpaceOnUse"><stop stop-color="#7000AC"/><stop offset=".127" stop-color="#7506AA"/><stop offset=".297" stop-color="#8517A5"/><stop offset=".491" stop-color="#9E339C"/><stop offset=".703" stop-color="#C25A90"/><stop offset=".927" stop-color="#EF8B80"/><stop offset=".999" stop-color="#FF9C7B"/></linearGradient><clipPath id="clip0"><path fill="#fff" d="M0 0h226v41.8H0z"/></clipPath></defs></svg>