<svg width="208" height="38" fill="none" xmlns="http://www.w3.org/2000/svg"><path d="M70.505 11.506c0 .741-.293 1.393-.834 1.865a2.49 2.49 0 01-1.69.652h-.248c-.609-.023-1.15-.293-1.623-.764a2.359 2.359 0 01-.721-1.708c0-.697.248-1.304.721-1.82a2.393 2.393 0 011.803-.787c.158 0 .338.022.631.067.587.135 1.06.45 1.443.9.338.471.518.988.518 1.595zm-.518 5.281v13.797c0 .877-.316 1.663-.947 2.292-.63.652-1.397.967-2.299.967a.855.855 0 01-.856-.854V16.787c0-.472.383-.854.856-.854h2.39c.473 0 .856.382.856.854zm21.819-1.843c-1.105-1.866-2.66-3.349-4.644-4.427-1.96-1.057-4.215-1.596-6.694-1.596h-6.875a.846.846 0 00-.834.832V32.74c0 .45.384.832.834.832h6.875c2.367 0 4.576-.517 6.537-1.55a12.316 12.316 0 004.733-4.383c1.172-1.887 1.758-4.045 1.758-6.427-.022-2.292-.586-4.404-1.69-6.27zm-14.967-2.09h3.494c1.826 0 3.448.36 4.778 1.1a7.745 7.745 0 013.088 2.99c.722 1.28 1.105 2.719 1.105 4.314 0 1.618-.383 3.079-1.105 4.337-.743 1.259-1.78 2.248-3.133 2.967-1.352.719-2.953 1.078-4.71 1.078h-3.517V12.854zm41.451 2.022c-1.081-1.91-2.592-3.415-4.462-4.516-1.894-1.102-3.99-1.663-6.289-1.663-2.344 0-4.486.561-6.379 1.685a12.182 12.182 0 00-4.486 4.584c-1.081 1.933-1.622 4.068-1.622 6.382 0 2.292.54 4.405 1.622 6.292 1.082 1.91 2.593 3.416 4.463 4.517 1.894 1.101 3.99 1.663 6.289 1.663 2.344 0 4.486-.562 6.379-1.685a12.177 12.177 0 004.485-4.584c1.082-1.933 1.623-4.068 1.623-6.383 0-2.292-.541-4.404-1.623-6.292zm-6.559 13.865c-1.239.765-2.637 1.146-4.192 1.146-1.6 0-3.043-.381-4.283-1.168-1.262-.764-2.254-1.843-2.953-3.146-.72-1.326-1.081-2.81-1.081-4.382 0-1.573.36-3.034 1.059-4.337a8.034 8.034 0 012.908-3.101c1.239-.764 2.659-1.146 4.237-1.146 1.578 0 2.998.404 4.26 1.168a8.287 8.287 0 012.976 3.191 9.148 9.148 0 011.081 4.382c0 1.55-.36 3.012-1.059 4.315a8.597 8.597 0 01-2.953 3.078zm26.395-2.494c0 1.528-.383 2.877-1.15 4.023-.766 1.146-1.803 2.022-3.088 2.651-1.262.607-2.727.9-4.282.9a9.38 9.38 0 01-4.328-1.035c-1.307-.674-2.389-1.573-3.178-2.674-.812-1.123-1.308-2.314-1.42-3.55a.827.827 0 01.586-.877 3.445 3.445 0 012.682.36c.541.337.969.764 1.285 1.303a5.305 5.305 0 001.871 1.865c.811.472 1.623.697 2.524.697 1.262 0 2.322-.315 3.201-.944.811-.562 1.172-1.326 1.172-2.404 0-.944-.316-1.64-.924-2.135a6.309 6.309 0 00-2.525-1.146l-3.065-.63a8.825 8.825 0 01-2.209-.741 7.814 7.814 0 01-2.096-1.416c-1.24-1.168-1.871-2.696-1.871-4.584 0-1.438.383-2.72 1.149-3.843.744-1.078 1.759-1.932 3.021-2.539a9.21 9.21 0 013.967-.876c1.69 0 3.155.314 4.35.921 1.217.607 2.164 1.393 2.818 2.36.653.943 1.081 1.932 1.262 2.92a.82.82 0 01-.654.967l-.158.023c-.338.067-.586.09-.789.09a3.551 3.551 0 01-1.6-.36 3.184 3.184 0 01-1.24-1.079c-.946-1.325-2.276-1.977-3.989-1.977-.113 0-.361 0-.879.067-.879.09-1.623.45-2.277 1.079-.608.607-.924 1.326-.924 2.18 0 .674.203 1.236.631 1.752.428.495 1.127.854 2.051 1.034l2.931.562c.969.18 1.87.45 2.659.764a7.584 7.584 0 012.232 1.438c.789.742 1.375 1.573 1.735 2.45.361.876.519 1.685.519 2.404zm19.857-14.225c0 .45-.383.832-.834.832h-6.852V32.74c0 .45-.383.832-.834.832h-2.434a.845.845 0 01-.834-.832V12.854h-4.621c-.856 0-1.6-.315-2.209-.922-.586-.606-.901-1.348-.901-2.18 0-.449.383-.83.834-.83h15.575c.856 0 1.6.291 2.209.898.608.607.901 1.326.901 2.202zm21.369-2.269v14.022c0 3.124-.834 5.596-2.502 7.37-1.668 1.776-4.012 2.675-6.988 2.675-2.975 0-5.342-.921-7.032-2.742-1.646-1.797-2.502-4.224-2.502-7.168V9.753c0-.45.383-.832.834-.832.879 0 1.645.315 2.299.944.631.63.947 1.393.947 2.292V23.82c0 2.135.495 3.685 1.487 4.63 1.014.966 2.322 1.437 4.012 1.437 1.758 0 3.043-.494 3.945-1.505.924-1.034 1.397-2.517 1.397-4.45V12.157c0-.876.316-1.64.947-2.292.631-.652 1.397-.944 2.299-.944.496 0 .857.36.857.832zm28.648 0V32.74c0 .45-.383.832-.834.832a3.123 3.123 0 01-2.277-.944c-.631-.63-.946-1.37-.946-2.27V16.584l-8.047 16.54a.817.817 0 01-.744.471.82.82 0 01-.744-.472l-8.092-16.382v13.64c0 .877-.315 1.641-.924 2.27a3.12 3.12 0 01-2.276.944.845.845 0 01-.834-.831V9.753c0-.45.383-.832.834-.832 1.194 0 2.321.337 3.313.989a6.033 6.033 0 012.232 2.63l6.491 13.168 6.401-13.124a6.27 6.27 0 012.254-2.652 5.96 5.96 0 013.359-1.01.83.83 0 01.834.83zM41.767 34.09c-1.849 1.663-4.305 3.393-6.83 3.73-3.02.405-6.13.112-9.016-.899 1.69.584 4.395-.135 6.018-.696a13.09 13.09 0 005.185-3.326c.225-.247.45-.517.676-.787.045-.067.09-.112.135-.18.293-.381.563-.763.811-1.19.113-.203.248-.405.338-.63.068-.135.158-.292.226-.427.045-.067.068-.157.113-.224.045-.09.067-.158.112-.248.09-.18.158-.382.226-.584.067-.202.135-.382.203-.584.067-.202.135-.405.18-.607.045-.157.09-.314.113-.472 0-.022 0-.045.022-.067 0-.045.023-.09.023-.135 0-.023 0-.045.022-.067.023-.113.045-.203.068-.293.022-.134.045-.247.067-.382.023-.134.046-.27.068-.427.023-.247.068-.471.068-.719 0-.135.022-.247.022-.382.023-.517.023-1.01 0-1.528 0-.135-.022-.247-.022-.382s-.023-.247-.045-.382c-.023-.135-.023-.247-.045-.382-.023-.135-.046-.247-.068-.382-.023-.135-.045-.247-.068-.382a2.349 2.349 0 00-.09-.382l-.068-.27-.067-.27c-.045-.179-.113-.359-.158-.539-.045-.112-.09-.247-.135-.36-.045-.111-.068-.201-.113-.314 0-.022-.022-.045-.022-.067l-.136-.337c-.045-.113-.112-.225-.157-.337-.045-.113-.113-.225-.18-.337-.046-.113-.113-.203-.159-.293 0 0 0-.022-.022-.022-.045-.09-.113-.18-.158-.27-2.412-3.977-7.303-6.606-13.389-7.213-8.768-.81-17.716 2.989-23.329 9.753 2.66-4.068 5.703-7.865 9.332-11.079 3.787-3.348 8.7-6.786 13.794-7.483l1.105-.135c.36-.045.744-.067 1.104-.09.136 0 .293-.022.429-.022 5.116-.203 9.985 1.64 13.704 5.168 3.832 3.618 6.063 8.674 6.154 13.843.045 2.786-.541 5.483-1.69 8.045a18.161 18.161 0 01-4.351 6.045z" fill="#fff"/><path d="M51.369 19.034c.045 2.786-.541 5.483-1.69 8.044-1.06 2.315-2.548 4.383-4.35 6.023l-.542.472c-.158.135-.338.27-.496.404-.022.023-.045.023-.045.045-.18.135-.36.293-.563.405l-.023.022c-.18.135-.36.248-.563.382-.023.023-.068.045-.09.068l-.406.27c-.068.044-.136.09-.203.112a7.05 7.05 0 01-.564.314c-.18.113-.383.203-.563.293-.113.044-.203.112-.316.157-.067.045-.157.067-.225.112-.113.045-.225.113-.36.158-.181.09-.361.157-.564.224a4.077 4.077 0 01-.474.18c-.022 0-.022.022-.045.022l-.203.068-.202.067c-.136.045-.248.09-.384.135-.135.045-.247.09-.383.112-.135.045-.27.09-.428.113a18.52 18.52 0 004.328-2.921c1.825-1.663 3.358-3.776 4.417-6.135 1.195-2.585 1.759-5.349 1.736-8.18-.068-5.259-2.344-10.405-6.243-14.09C38.294 2.517 33.63.674 28.694.674c-.248 0-.496 0-.744.022-.722.023-1.465.09-2.21.18.226-.067.474-.112.7-.18h.067c.045 0 .09-.022.135-.022.045 0 .09-.022.136-.022.135-.023.248-.045.36-.068.068-.022.158-.022.226-.045.112-.022.203-.045.315-.067.045 0 .113-.023.18-.023.113-.022.226-.045.361-.045h.045c.136-.022.248-.045.383-.067.046 0 .068 0 .113-.023.09-.022.18-.022.27-.044h.09c.113-.023.204-.023.316-.045.068 0 .158-.023.226-.023.067 0 .157-.022.248-.022.045 0 .09 0 .135-.023.203-.022.383-.045.586-.045h.361c.18 0 .36-.022.518-.022 5.117-.202 9.985 1.64 13.704 5.168.474.45.924.922 1.353 1.416.203.247.428.494.63.764.204.247.407.517.587.787l.54.809c.181.27.339.561.497.831.09.135.158.27.225.427.068.135.158.292.226.427.067.135.135.292.202.427.045.09.09.18.136.292 0 .022.022.022.022.045.045.112.113.225.158.337l.27.674c.046.135.113.292.158.427s.09.292.158.427c.045.135.09.27.135.427.045.135.09.292.136.427.045.157.09.337.135.495.045.18.09.337.112.516.046.18.068.337.113.517.09.45.158.9.203 1.348 0 .068.023.135.023.203 0 .067.022.135.022.202.023.135.023.27.045.427.023.202.023.404.045.607 0 .112.023.314.023.517z" fill="#fff"/><path d="M30.79.045h-.113c.023.022.068 0 .113 0h.203-.203zm8.204 17.438l-.09-.157c.045.09.113.18.158.27-.023-.023-.045-.068-.068-.113zm.271 19.259c.022 0 .022 0 .045-.023.158-.067.316-.112.473-.18-.18.068-.338.135-.518.203zM29.055.224c-.091 0-.181.022-.271.045.112-.023.248-.023.36-.045-.022-.023-.045-.023-.09 0zm-.812.112c-.113.022-.226.045-.36.045-.046 0-.114.022-.181.022-.113.023-.226.045-.316.068-.067.022-.158.022-.225.045l.744-.135.405-.067c-.022.022-.045.022-.067.022zM26.53.674h-.068c.068-.022.135-.022.225-.045-.067.023-.112.023-.157.045z" fill="#fff"/><path d="M51.369 19.034c.045 2.786-.541 5.483-1.69 8.045-1.06 2.314-2.548 4.382-4.35 6.022l-.542.472c-.158.135-.338.27-.496.404-.022.023-.045.023-.045.045-.18.135-.36.293-.563.405l-.023.022c-.18.135-.36.248-.563.382-.023.023-.068.045-.09.068l-.406.27a.913.913 0 01-.203.112 7.05 7.05 0 01-.564.314c-.18.113-.383.203-.563.293-.113.044-.203.112-.316.157-.067.045-.157.067-.225.112-.113.045-.225.113-.36.158-.181.09-.361.157-.564.224-.18.068-.338.135-.519.203l-.203.067-.202.067c-.136.045-.248.09-.384.135-.135.045-.247.09-.383.112-.135.045-.27.09-.428.113a18.523 18.523 0 004.328-2.921c1.825-1.663 3.358-3.776 4.417-6.135 1.195-2.585 1.759-5.349 1.736-8.18-.068-5.258-2.344-10.405-6.243-14.09C38.294 2.517 33.63.674 28.694.674c-.248 0-.496 0-.744.023-.722.022-1.465.09-2.21.18.226-.068.474-.113.7-.18.225-.045.473-.113.698-.158l.744-.135c.113-.022.225-.045.36-.067h.046c.135-.022.248-.045.383-.067.045 0 .068 0 .113-.023.112-.022.248-.022.36-.045.113-.022.203-.022.316-.045.158-.022.315-.045.473-.045.045 0 .09 0 .135-.022.203-.023.384-.045.586-.045h.339c.18 0 .36-.023.518-.023 5.117-.202 9.985 1.64 13.704 5.169.474.45.924.921 1.353 1.416.203.247.428.494.63.764.204.247.407.517.587.786l.54.81c.181.269.339.561.497.83.09.135.158.27.225.428.068.134.158.292.226.427.067.134.135.292.202.427.045.09.09.18.136.292 0 .022.022.022.022.045.045.112.113.224.158.337l.27.674c.046.135.113.292.158.427s.09.292.158.427c.045.135.09.27.135.427.045.135.09.292.136.427.045.157.09.337.135.494.045.18.09.337.112.517.045.18.068.337.113.517.09.45.158.899.203 1.348 0 .068.023.135.023.202 0 .068.022.135.022.203.023.134.023.27.045.427.023.202.023.404.045.606 0 .18.023.382.023.585zM4.824 17.505z" fill="#fff"/><path d="M38.994 17.483l-.09-.157c.045.09.113.18.158.27 0 0 0 .022.023.022.067.112.112.202.157.292l.045.022-.293-.449zm-.788-.607c-9.648-6-19.588-3.798-26.305-.854C6.086 18.584 1.645 22.135 0 23.572a.49.49 0 00.068-.111c.067-.135.157-.27.225-.405.203-.36.428-.697.676-1.056.113-.157.226-.337.338-.494.113-.158.203-.293.316-.45.27-.382.586-.764.901-1.146.136-.18.294-.337.429-.517.135-.157.293-.315.428-.472.158-.18.316-.337.496-.517.315-.314.631-.629.97-.944.157-.157.337-.314.495-.449.18-.157.338-.292.518-.45.18-.157.339-.291.519-.426s.36-.292.54-.427c.294-.225.587-.427.88-.652 1.037-.674 2.119-1.326 3.246-1.888.315-.157.63-.314.969-.471a27.23 27.23 0 016.198-1.956c.293-.044.586-.112.88-.157a26.927 26.927 0 013.809-.292c.856 0 1.735.045 2.592.135.36.045.699.067 1.06.135.09 0 .18.022.27.045.112.022.225.022.338.045.315.045.608.112.924.18.158.022.338.067.496.112.135.022.27.067.406.09.202.044.428.112.63.18.136.022.249.067.361.112.023 0 .045.022.068.022.135.045.293.09.428.135.135.045.27.09.383.135.429.157.857.314 1.285.494.158.068.293.135.451.203.113.044.203.09.315.157a15.659 15.659 0 013.111 2c.09.067.158.135.248.202.045.045.09.067.113.112.067.068.157.135.225.225l.045.045.203.202c.068.045.113.113.18.18.068.067.136.135.203.225.09.09.18.202.27.292.09.112.181.202.271.315.09.112.18.202.248.314.068.113.113.18.18.292zm-13.908 9.169c-1.037-2.832-6.288-2.36-9.872-1.079-3.584 1.303-9.22 5.798-11.045 8.63 3.088 1.145 10.436.853 14.02-.428 3.584-1.28 7.934-4.292 6.897-7.123zm5.5 1.932a3.916 3.916 0 003.922-3.91c0-2.16-1.756-3.91-3.922-3.91a3.916 3.916 0 00-3.922 3.91c0 2.16 1.756 3.91 3.922 3.91z" fill="#fff"/></svg>