<svg width="141" height="131" fill="none" xmlns="http://www.w3.org/2000/svg"><ellipse rx="50.5" ry="46" transform="matrix(-.8044 .5941 .6415 .76712 70.131 65.29)" fill="url(#paint0_linear)"/><ellipse rx="56.5" ry="42.5" transform="matrix(-.98613 -.16598 -.20668 .9784 71.744 70.204)" fill="url(#paint1_linear)"/><path d="M80.84 111.384c-36.263-2.551-66.157-26.213-66.769-52.851-.612-26.638 24.63-35.932 60.894-33.382 36.263 2.551 22.004 25.491 22.617 52.13.612 26.637 19.522 36.653-16.742 34.103z" fill="url(#paint2_linear)"/><path d="M73.267 33H51.933a5.34 5.34 0 00-5.333 5.333v38.4a5.34 5.34 0 005.333 5.334h19.2v-2.134h-19.2a3.204 3.204 0 01-3.2-3.2v-38.4c0-1.764 1.436-3.2 3.2-3.2h21.334c1.764 0 3.2 1.436 3.2 3.2v30.934H78.6V38.333A5.34 5.34 0 0073.267 33z" fill="#fff"/><path d="M88.83 61.412L78.366 48.334 76.7 49.668l10.464 13.076a9.627 9.627 0 012.104 6v26.123H73.66c-5.51 0-9.994-4.484-9.994-9.995V81h-2.134v3.872C61.533 91.559 66.975 97 73.661 97h16.672c.59 0 1.067-.477 1.067-1.067V68.745a11.778 11.778 0 00-2.57-7.333z" fill="#fff"/><path d="M64.73 58.156a2.784 2.784 0 011.957.876l14.336 15.232 1.554-1.462L68.24 57.569a4.906 4.906 0 00-3.45-1.546 4.844 4.844 0 00-3.52 1.336 4.924 4.924 0 00-.39 6.784l9.187 10.848v3.3c-.001 5.894 3.705 11.242 9.225 13.309l.75-1.998C75.35 87.845 72.198 83.3 72.2 78.29V74.6c0-.252-.09-.498-.253-.69L62.51 62.766c-.944-1.125-.874-2.758.214-3.847.544-.514 1.254-.769 2.005-.764z" fill="#fff"/><path d="M72.2 35.133h-2.133V61.8H72.2V35.133zM66.867 68.2h-2.134V81h2.134V68.2zm0-34.133h-2.134v23.466h2.134V34.067zm-12.8 4.266h-2.134V52.2h2.134V38.333zm5.333 0h-2.133v8.534H59.4v-8.534zm0 29.867H53c-.589 0-1.067.477-1.067 1.066v6.4c0 .59.478 1.067 1.067 1.067h6.4c.589 0 1.067-.477 1.067-1.067v-6.4c0-.59-.478-1.066-1.067-1.066zm-1.067 6.4h-4.266v-4.267h4.266V74.6z" fill="#fff"/><defs><linearGradient id="paint0_linear" x1=".039" y1="45.987" x2="101.018" y2="45.987" gradientUnits="userSpaceOnUse"><stop stop-color="#7000AC"/><stop offset=".999" stop-color="#FF9C7B" stop-opacity="0"/></linearGradient><linearGradient id="paint1_linear" x1=".044" y1="42.488" x2="113.02" y2="42.488" gradientUnits="userSpaceOnUse"><stop stop-color="#7000AC" stop-opacity="0"/><stop offset=".999" stop-color="#FF9C7B"/></linearGradient><linearGradient id="paint2_linear" x1="57.237" y1="23.938" x2="51.232" y2="109.316" gradientUnits="userSpaceOnUse"><stop stop-color="#7000AC"/><stop offset=".999" stop-color="#FF9C7B" stop-opacity="0"/></linearGradient></defs></svg>