<svg width="153" height="128" fill="none" xmlns="http://www.w3.org/2000/svg"><ellipse rx="50.5" ry="46" transform="matrix(-.96868 -.24831 .30625 -.95195 72.17 56.67)" fill="url(#paint0_linear)"/><ellipse rx="56.5" ry="42.5" transform="matrix(.98613 -.16598 .20668 .9784 74.5 62.205)" fill="url(#paint1_linear)"/><path d="M142.067 73.234c-17.716 30.247-59.633 41.906-93.623 26.041-33.99-15.864-35.683-43.733-17.966-73.98C48.194-4.95 71.56 21.686 105.55 37.549c33.99 15.865 54.233 5.44 36.516 35.686z" fill="url(#paint2_linear)"/><g clip-path="url(#clip0)" fill="#fff"><path d="M86.667 89c-9.558 0-17.334-7.776-17.334-17.334 0-9.557 7.776-17.333 17.334-17.333 9.557 0 17.333 7.776 17.333 17.333C104 81.224 96.224 89 86.667 89zm0-32C78.579 57 72 63.58 72 71.666s6.579 14.667 14.667 14.667c8.088 0 14.666-6.581 14.666-14.667 0-8.085-6.578-14.666-14.666-14.666z"/><path d="M84 78.334c-.352 0-.693-.142-.944-.39l-5.333-5.333a1.334 1.334 0 011.885-1.885l4.325 4.325 8.395-9.595a1.331 1.331 0 011.883-.125 1.33 1.33 0 01.125 1.88l-9.333 10.667a1.343 1.343 0 01-.96.456H84zM65.333 81H46.667A6.674 6.674 0 0140 74.333V39.667A6.674 6.674 0 0146.667 33H52a1.334 1.334 0 010 2.667h-5.333c-2.206 0-4 1.794-4 4v34.666c0 2.206 1.794 4 4 4h18.666a1.334 1.334 0 010 2.667zM84 49a1.334 1.334 0 01-1.333-1.333v-8c0-2.206-1.795-4-4-4h-5.334a1.334 1.334 0 010-2.667h5.334a6.674 6.674 0 016.666 6.667v8c0 .736-.597 1.333-1.333 1.333z"/><path d="M70.667 41h-16c-2.206 0-4-1.795-4-4v-5.333c0-.736.597-1.334 1.333-1.334h4.133c.622-3.04 3.312-5.333 6.534-5.333 3.221 0 5.912 2.293 6.533 5.333h4.133c.736 0 1.334.598 1.334 1.334V37c0 2.205-1.795 4-4 4zm-17.334-8v4c0 .733.598 1.333 1.334 1.333h16c.736 0 1.333-.6 1.333-1.333v-4h-4a1.334 1.334 0 01-1.333-1.333c0-2.206-1.795-4-4-4-2.206 0-4 1.794-4 4 0 .736-.598 1.333-1.334 1.333h-4zM76 49H49.333a1.334 1.334 0 010-2.667H76A1.334 1.334 0 0176 49zm-8 8H49.333a1.334 1.334 0 010-2.667H68A1.334 1.334 0 0168 57zm-5.333 8H49.333a1.334 1.334 0 010-2.667h13.334a1.334 1.334 0 010 2.667z"/></g><defs><linearGradient id="paint0_linear" x1=".039" y1="45.987" x2="101.018" y2="45.987" gradientUnits="userSpaceOnUse"><stop stop-color="#7000AC"/><stop offset=".999" stop-color="#FF9C7B" stop-opacity="0"/></linearGradient><linearGradient id="paint1_linear" x1=".044" y1="42.488" x2="113.02" y2="42.488" gradientUnits="userSpaceOnUse"><stop stop-color="#7000AC" stop-opacity="0"/><stop offset=".999" stop-color="#FF9C7B"/></linearGradient><linearGradient id="paint2_linear" x1="21.859" y1="40.102" x2="125.828" y2="101.001" gradientUnits="userSpaceOnUse"><stop stop-color="#7000AC"/><stop offset=".999" stop-color="#FF9C7B" stop-opacity="0"/></linearGradient><clipPath id="clip0"><path fill="#fff" transform="translate(40 25)" d="M0 0h64v64H0z"/></clipPath></defs></svg>